<svg width="32" height="32" viewBox="0 0 32 32" fill="none" xmlns="http://www.w3.org/2000/svg">
<g id="Behance">
<g id="Behance_2">
<rect id="Rectangle" width="32" height="32" rx="16" fill="#0057FF"/>
<path id="Vector" d="M12.2883 9.29773C12.9041 9.29773 13.4725 9.3451 13.9935 9.48719C14.5145 9.58193 14.9408 9.77139 15.3197 10.0082C15.6987 10.2451 15.9829 10.5766 16.1723 11.0029C16.3618 11.4292 16.4565 11.9502 16.4565 12.5186C16.4565 13.1818 16.3144 13.7501 15.9829 14.1764C15.6987 14.6027 15.225 14.9817 14.6566 15.2659C15.4618 15.5027 16.0776 15.929 16.4565 16.4974C16.8355 17.0658 17.0723 17.7763 17.0723 18.5815C17.0723 19.2446 16.9302 19.813 16.6934 20.2867C16.4565 20.7603 16.0776 21.1866 15.6513 21.4708C15.225 21.755 14.704 21.9918 14.1356 22.1339C13.5672 22.276 12.9988 22.3708 12.4304 22.3708H6.08334V9.29773H12.2883ZM11.9094 14.6027C12.4304 14.6027 12.8567 14.4606 13.1883 14.2238C13.5198 13.987 13.6619 13.5607 13.6619 13.0397C13.6619 12.7555 13.6146 12.4713 13.5198 12.2818C13.4251 12.0923 13.283 11.9502 13.0935 11.8081C12.9041 11.7134 12.7146 11.6187 12.4778 11.5713C12.2409 11.5239 12.0041 11.5239 11.7199 11.5239H8.97268V14.6027H11.9094ZM12.0515 20.1919C12.3357 20.1919 12.6199 20.1446 12.8567 20.0972C13.0935 20.0498 13.3304 19.9551 13.5198 19.813C13.7093 19.6709 13.8514 19.5288 13.9935 19.292C14.0882 19.0551 14.1829 18.771 14.1829 18.4394C14.1829 17.7763 13.9935 17.3026 13.6146 16.971C13.2356 16.6868 12.7146 16.5447 12.0988 16.5447H8.97268V20.1919H12.0515ZM21.1931 20.1446C21.5721 20.5235 22.1405 20.713 22.8983 20.713C23.4193 20.713 23.893 20.5709 24.2719 20.334C24.6509 20.0498 24.8877 19.7656 24.9824 19.4814H27.3034C26.9244 20.6182 26.356 21.4235 25.5982 21.9445C24.8403 22.4181 23.9404 22.7023 22.8509 22.7023C22.0931 22.7023 21.43 22.5602 20.8142 22.3234C20.1984 22.0866 19.7248 21.755 19.2985 21.2814C18.8722 20.8551 18.5406 20.334 18.3512 19.7183C18.1143 19.1025 18.0196 18.4394 18.0196 17.6815C18.0196 16.971 18.1143 16.3079 18.3512 15.6922C18.588 15.0764 18.9196 14.5554 19.3459 14.0817C19.7721 13.6554 20.2932 13.2765 20.8616 13.0397C21.4773 12.8028 22.0931 12.6607 22.8509 12.6607C23.6562 12.6607 24.3667 12.8028 24.9824 13.1344C25.5982 13.4659 26.0718 13.8449 26.4508 14.4133C26.8297 14.9343 27.1139 15.5501 27.3034 16.2132C27.3981 16.8763 27.4455 17.5394 27.3981 18.2973H20.53C20.53 19.0551 20.8142 19.7656 21.1931 20.1446ZM24.1772 15.1711C23.8456 14.8396 23.3246 14.6501 22.7088 14.6501C22.2826 14.6501 21.951 14.7448 21.6668 14.8869C21.3826 15.029 21.1931 15.2185 21.0037 15.408C20.8142 15.5974 20.7195 15.8343 20.6721 16.0711C20.6247 16.3079 20.5774 16.4974 20.5774 16.6868H24.8403C24.7456 15.9764 24.5088 15.5027 24.1772 15.1711ZM20.009 10.1977H25.314V11.4766H20.009V10.1977Z" fill="white"/>
</g>
</g>
</svg>
