<svg width="31" height="31" viewBox="0 0 31 31" fill="none" xmlns="http://www.w3.org/2000/svg">
<g id="Instagram">
<g id="Instagram_2">
<rect id="Rectangle" width="31" height="31" rx="15.5" fill="#262626"/>
<path id="Vector" d="M12.2717 15.5C12.2717 13.7166 13.717 12.2706 15.5004 12.2706C17.2837 12.2706 18.7298 13.7166 18.7298 15.5C18.7298 17.2834 17.2837 18.7294 15.5004 18.7294C13.717 18.7294 12.2717 17.2834 12.2717 15.5ZM10.526 15.5C10.526 18.2474 12.753 20.4744 15.5004 20.4744C18.2477 20.4744 20.4748 18.2474 20.4748 15.5C20.4748 12.7526 18.2477 10.5256 15.5004 10.5256C12.753 10.5256 10.526 12.7526 10.526 15.5ZM19.5092 10.3283C19.5091 10.5583 19.5772 10.7831 19.7049 10.9743C19.8325 11.1655 20.014 11.3146 20.2264 11.4026C20.4388 11.4907 20.6725 11.5138 20.898 11.4691C21.1236 11.4243 21.3307 11.3137 21.4934 11.1512C21.656 10.9886 21.7668 10.7815 21.8118 10.5561C21.8567 10.3306 21.8338 10.0968 21.7459 9.88437C21.658 9.67192 21.5091 9.4903 21.3179 9.36249C21.1268 9.23467 20.9021 9.1664 20.6722 9.16631H20.6717C20.3635 9.16646 20.068 9.28892 19.85 9.5068C19.6321 9.72467 19.5095 10.0202 19.5092 10.3283ZM11.5866 23.3854C10.6421 23.3424 10.1288 23.1851 9.78761 23.0521C9.33532 22.8761 9.01261 22.6663 8.67331 22.3275C8.33402 21.9887 8.12399 21.6663 7.94869 21.214C7.8157 20.873 7.65837 20.3595 7.61544 19.415C7.56847 18.3939 7.5591 18.0871 7.5591 15.5001C7.5591 12.9131 7.56925 12.6072 7.61544 11.5852C7.65845 10.6407 7.81694 10.1282 7.94869 9.78616C8.12477 9.33387 8.33448 9.01116 8.67331 8.67186C9.01214 8.33257 9.33454 8.12254 9.78761 7.94724C10.1286 7.81425 10.6421 7.65692 11.5866 7.61399C12.6078 7.56702 12.9145 7.55764 15.5004 7.55764C18.0862 7.55764 18.3933 7.5678 19.4153 7.61399C20.3598 7.657 20.8723 7.81549 21.2143 7.94724C21.6666 8.12254 21.9893 8.33303 22.3286 8.67186C22.6679 9.01069 22.8771 9.33387 23.0532 9.78616C23.1862 10.1272 23.3435 10.6407 23.3865 11.5852C23.4334 12.6072 23.4428 12.9131 23.4428 15.5001C23.4428 18.0871 23.4334 18.393 23.3865 19.415C23.3434 20.3595 23.1853 20.8728 23.0532 21.214C22.8771 21.6663 22.6674 21.989 22.3286 22.3275C21.9898 22.666 21.6666 22.8761 21.2143 23.0521C20.8733 23.1851 20.3598 23.3425 19.4153 23.3854C18.3941 23.4324 18.0874 23.4417 15.5004 23.4417C12.9133 23.4417 12.6074 23.4324 11.5866 23.3854ZM11.5064 5.87117C10.4751 5.91813 9.7704 6.08166 9.15498 6.32113C8.51762 6.56843 7.97806 6.90021 7.43889 7.43853C6.89973 7.97684 6.5688 8.51725 6.3215 9.15461C6.08202 9.77042 5.9185 10.4747 5.87153 11.506C5.82379 12.539 5.81287 12.8692 5.81287 15.5C5.81287 18.1308 5.82379 18.461 5.87153 19.494C5.9185 20.5253 6.08202 21.2296 6.3215 21.8454C6.5688 22.4824 6.8998 23.0234 7.43889 23.5615C7.97798 24.0996 8.51762 24.4309 9.15498 24.6789C9.77157 24.9183 10.4751 25.0819 11.5064 25.1288C12.5399 25.1758 12.8696 25.1875 15.5004 25.1875C18.1312 25.1875 18.4614 25.1766 19.4943 25.1288C20.5257 25.0819 21.2299 24.9183 21.8458 24.6789C22.4827 24.4309 23.0227 24.0998 23.5618 23.5615C24.101 23.0232 24.4312 22.4824 24.6792 21.8454C24.9187 21.2296 25.083 20.5253 25.1292 19.494C25.1762 18.4603 25.1871 18.1308 25.1871 15.5C25.1871 12.8692 25.1762 12.539 25.1292 11.506C25.0822 10.4747 24.9187 9.77004 24.6792 9.15461C24.4312 8.51764 24.1002 7.97769 23.5618 7.43853C23.0235 6.89936 22.4827 6.56843 21.8465 6.32113C21.2299 6.08166 20.5256 5.91736 19.4951 5.87117C18.4622 5.8242 18.132 5.8125 15.5011 5.8125C12.8703 5.8125 12.5399 5.82343 11.5064 5.87117Z" fill="white"/>
</g>
</g>
</svg>
