<svg width="31" height="32" viewBox="0 0 31 32" fill="none" xmlns="http://www.w3.org/2000/svg">
<g id="LinkedIn">
<g id="LinkedIn_2">
<rect id="Rectangle" width="31" height="32" rx="15.5" fill="#0077B5"/>
<g id="Group">
<path id="Path" d="M24.1057 23.55C23.0886 23.525 22.0956 23.525 21.0784 23.55C20.8604 23.55 20.812 23.5 20.812 23.275C20.812 21.425 20.812 19.55 20.812 17.7C20.812 17.275 20.7878 16.85 20.6667 16.45C20.3034 15.15 18.8503 14.675 17.8089 15.55C17.2518 16 17.0339 16.625 17.0339 17.375C17.0339 19.125 17.0339 20.875 17.0339 22.625C17.0339 22.85 17.0097 23.075 17.0339 23.325C17.0581 23.525 16.9612 23.575 16.7917 23.55C15.7503 23.55 14.7331 23.55 13.6917 23.55C13.4979 23.55 13.4495 23.5 13.4495 23.3C13.4737 21.725 13.4737 20.15 13.4737 18.55C13.4737 16.6 13.4737 14.65 13.4495 12.725C13.4495 12.5 13.4979 12.45 13.6917 12.45C14.7331 12.45 15.7503 12.45 16.7917 12.45C16.9854 12.45 17.0339 12.5 17.0339 12.7C17.0339 13.1 17.0339 13.5 17.0339 13.975C17.1065 13.9 17.1307 13.875 17.155 13.85C18.0995 12.425 19.4315 12.025 21.0057 12.275C22.8222 12.575 23.9847 13.875 24.2753 15.875C24.3479 16.35 24.3722 16.825 24.3722 17.3C24.3722 19.3 24.3722 21.275 24.3722 23.275C24.3722 23.475 24.3237 23.55 24.1057 23.55Z" fill="white"/>
<path id="Path_2" d="M11.512 18C11.512 19.75 11.512 21.5 11.512 23.25C11.512 23.475 11.4636 23.55 11.2456 23.55C10.2284 23.525 9.21122 23.55 8.19403 23.55C8.00028 23.55 7.95184 23.5 7.95184 23.3C7.95184 19.775 7.95184 16.225 7.95184 12.7C7.95184 12.525 8.00028 12.45 8.19403 12.45C9.23544 12.45 10.2768 12.45 11.3183 12.45C11.5362 12.45 11.5604 12.525 11.5604 12.725C11.512 14.475 11.512 16.225 11.512 18Z" fill="white"/>
<path id="Path_3" d="M11.6815 9.55001C11.4394 10.55 10.4464 11.125 9.30811 10.925C8.09717 10.725 7.41905 9.50001 7.85498 8.30001C8.14561 7.55001 8.84795 7.10001 9.74405 7.12501C11.1003 7.10001 11.9964 8.22501 11.6815 9.55001Z" fill="white"/>
</g>
</g>
</g>
</svg>
