<svg width="32" height="32" viewBox="0 0 32 32" fill="none" xmlns="http://www.w3.org/2000/svg">
<g id="Medium">
<g id="Medium_2">
<rect id="Rectangle" width="32" height="32" rx="16" fill="#292929"/>
<path id="Vector" d="M25.6667 23.7714L24.2205 22.3238C24.0682 22.2476 23.9921 22.019 23.9921 21.8667V10.2857C23.9921 10.1333 24.0682 9.90476 24.2205 9.75238L25.6667 8.07619V8H20.4908L16.6089 17.8286L12.1942 8H6.86615V8.07619L8.23623 9.98095C8.54069 10.2857 8.61681 10.7429 8.61681 11.1238V19.5048C8.69292 19.9619 8.61681 20.4952 8.38846 20.9524L6.33334 23.7714V23.8476H11.8137V23.7714L9.75854 21.0286C9.53019 20.5714 9.45408 20.1143 9.53019 19.581V11.9619C9.60631 12.1143 9.68242 12.1143 9.75854 12.419L14.9344 24H15.0105L20.0341 11.4286C19.958 11.8857 19.958 12.419 19.958 12.8V21.7905C19.958 22.019 19.8819 22.1714 19.7297 22.3238L18.2074 23.7714V23.8476H25.6667V23.7714Z" fill="white"/>
</g>
</g>
</svg>
